<svg height="2238" width="720" xmlns="http://www.w3.org/2000/svg">
<rect height="2238" fill="#555" width="720"></rect>
<text fill="#7f7" font-family="Courier New" font-size="12" xml:space="preserve">
<tspan x="10" y="26"></tspan>
<tspan x="10" y="42">&gt; npmdoc-gm@0.0.2 test /home/travis/build/npmdoc/node-npmdoc-gm</tspan>
<tspan x="10" y="58">&gt; (set -e; export PORT=$(utility2 shServerPortRandom); utility2 test test.js)</tspan>
<tspan x="10" y="74"></tspan>
<tspan x="10" y="90"></tspan>
<tspan x="10" y="106">[MODE_BUILD=npmTest] - 2017-03-25T12:38:30Z - npm-testing /home/travis/build/npmdoc/node-npmdoc-\</tspan>
<tspan x="10" y="122">gm</tspan>
<tspan x="10" y="138"></tspan>
<tspan x="10" y="154"></tspan>
<tspan x="10" y="170">covering $ /home/travis/.nvm/versions/node/v7.7.4/bin/node /home/travis/build/npmdoc/node-npmdoc\</tspan>
<tspan x="10" y="186">-gm/test.js</tspan>
<tspan x="10" y="202">merging file:///home/travis/build/npmdoc/node-npmdoc-gm/tmp/build/test-report.json to test-repor\</tspan>
<tspan x="10" y="218">t</tspan>
<tspan x="10" y="234">&gt; server listening on http-port 48147</tspan>
<tspan x="10" y="250">created apidoc file:///home/travis/build/npmdoc/node-npmdoc-gm/tmp/build/apidoc.html</tspan>
<tspan x="10" y="266"></tspan>
<tspan x="10" y="282"></tspan>
<tspan x="10" y="298">browserTest - created electron entry-page /home/travis/build/npmdoc/node-npmdoc-gm/tmp/electron.\</tspan>
<tspan x="10" y="314">15b0579ab500.0e48a0ec9e9a8.html</tspan>
<tspan x="10" y="330"></tspan>
<tspan x="10" y="346">[node test-case 1 of 6 passed] - testCase_buildLib_default</tspan>
<tspan x="10" y="362">[node test-case 2 of 6 passed] - testCase_buildReadme_default</tspan>
<tspan x="10" y="378">[node test-case 3 of 6 passed] - testCase_buildTest_default</tspan>
<tspan x="10" y="394"></tspan>
<tspan x="10" y="410">browserTest - created electron entry-page /home/travis/build/npmdoc/node-npmdoc-gm/tmp/electron.\</tspan>
<tspan x="10" y="426">15b0579abb20.481091d263fd6.html</tspan>
<tspan x="10" y="442"></tspan>
<tspan x="10" y="458">(node:4912) DeprecationWarning: node --debug is deprecated. Please use node --inspect instead.</tspan>
<tspan x="10" y="474">Xlib:  extension "RANDR" missing on display ":99.0".</tspan>
<tspan x="10" y="490">Xlib:  extension "RANDR" missing on display ":99.0".</tspan>
<tspan x="10" y="506">&gt; server listening on http-port 49277</tspan>
<tspan x="10" y="522"></tspan>
<tspan x="10" y="538">/home/travis/build/npmdoc/node-npmdoc-gm/node_modules/utility2/lib.utility2.sh.html.js</tspan>
<tspan x="10" y="554"> #1 Line too long.</tspan>
<tspan x="10" y="570">    process.stdout.write('export npm_package_' + key.replace((/\W/g), '_') + '=' + JSON.stringif\</tspan>
<tspan x="10" y="586">y(value) + ';'); // Line 1445, Pos 116</tspan>
<tspan x="10" y="602"></tspan>
<tspan x="10" y="618">merging file:///home/travis/build/npmdoc/node-npmdoc-gm/tmp/build/test-report.json to test-repor\</tspan>
<tspan x="10" y="634">t</tspan>
<tspan x="10" y="650">Xlib:  extension "RANDR" missing on display ":99.0".</tspan>
<tspan x="10" y="666">[4927:0325/123832:WARNING:audio_manager.cc(314)] Multiple instances of AudioManager detected</tspan>
<tspan x="10" y="682">[4927:0325/123832:WARNING:audio_manager.cc(275)] Multiple instances of AudioManager detected</tspan>
<tspan x="10" y="698">[4971:0325/123832:ERROR:sandbox_linux.cc(343)] InitializeSandbox() called with multiple threads \</tspan>
<tspan x="10" y="714">in process gpu-process. </tspan>
<tspan x="10" y="730"></tspan>
<tspan x="10" y="746">/home/travis/build/npmdoc/node-npmdoc-gm/node_modules/utility2/lib.utility2.sh.html.js</tspan>
<tspan x="10" y="762"> #1 Line too long.</tspan>
<tspan x="10" y="778">    process.stdout.write('export npm_package_' + key.replace((/\W/g), '_') + '=' + JSON.stringif\</tspan>
<tspan x="10" y="794">y(value) + ';'); // Line 1445, Pos 116</tspan>
<tspan x="10" y="810"></tspan>
<tspan x="10" y="826">[4927:0325/123832:ERROR:browser_gpu_channel_host_factory.cc(131)] Failed to create channel.</tspan>
<tspan x="10" y="842">merging file:///home/travis/build/npmdoc/node-npmdoc-gm/tmp/build/test-report.json to test-repor\</tspan>
<tspan x="10" y="858">t</tspan>
<tspan x="10" y="874">Xlib:  extension "RANDR" missing on display ":99.0".</tspan>
<tspan x="10" y="890">[4947:0325/123832:WARNING:audio_manager.cc(314)] Multiple instances of AudioManager detected</tspan>
<tspan x="10" y="906">[4947:0325/123832:WARNING:audio_manager.cc(275)] Multiple instances of AudioManager detected</tspan>
<tspan x="10" y="922">[5001:0325/123832:ERROR:sandbox_linux.cc(343)] InitializeSandbox() called with multiple threads \</tspan>
<tspan x="10" y="938">in process gpu-process. </tspan>
<tspan x="10" y="954">[4947:0325/123832:ERROR:browser_gpu_channel_host_factory.cc(131)] Failed to create channel.</tspan>
<tspan x="10" y="970"></tspan>
<tspan x="10" y="986">browserTest - opened url file:///home/travis/build/npmdoc/node-npmdoc-gm/tmp/build/apidoc.html</tspan>
<tspan x="10" y="1002"></tspan>
<tspan x="10" y="1018"></tspan>
<tspan x="10" y="1034">browserTest - opened url http://127.0.0.1:48147?modeTest=1</tspan>
<tspan x="10" y="1050"></tspan>
<tspan x="10" y="1066">[4947:0325/123834:INFO:CONSOLE(203)] "----------|-----------|-----------|-----------|-----------\</tspan>
<tspan x="10" y="1082">|</tspan>
<tspan x="10" y="1098">File      |   % Stmts |% Branches |   % Funcs |   % Lines |</tspan>
<tspan x="10" y="1114">----------|-----------|-----------|-----------|-----------|</tspan>
<tspan x="10" y="1130">----------|-----------|-----------|-----------|-----------|</tspan>
<tspan x="10" y="1146">All files |       100 |       100 |       100 |       100 |</tspan>
<tspan x="10" y="1162">----------|-----------|-----------|-----------|-----------|</tspan>
<tspan x="10" y="1178">", source: file:///home/travis/build/npmdoc/node-npmdoc-gm/tmp/electron.15b0579abb20.481091d263f\</tspan>
<tspan x="10" y="1194">d6.html (203)</tspan>
<tspan x="10" y="1210">[4947:0325/123834:INFO:CONSOLE(203)] "created coverage file:///tmp/build/coverage.html/index.htm\</tspan>
<tspan x="10" y="1226">l", source: file:///home/travis/build/npmdoc/node-npmdoc-gm/tmp/electron.15b0579abb20.481091d263\</tspan>
<tspan x="10" y="1242">fd6.html (203)</tspan>
<tspan x="10" y="1258">[node test-case 4 of 6 passed] - testCase_buildApp_default</tspan>
<tspan x="10" y="1274"></tspan>
<tspan x="10" y="1290">browserTest - created screen-capture file:///home/travis/build/npmdoc/node-npmdoc-gm/tmp/build/s\</tspan>
<tspan x="10" y="1306">creen-capture.npmTest.browser._2Fhome_2Ftravis_2Fbuild_2Fnpmdoc_2Fnode-npmdoc-gm_2Ftmp_2Fbuild_2\</tspan>
<tspan x="10" y="1322">Fapidoc.html.png</tspan>
<tspan x="10" y="1338"></tspan>
<tspan x="10" y="1354"></tspan>
<tspan x="10" y="1370">browserTest - exit-code 0 - file:///home/travis/build/npmdoc/node-npmdoc-gm/tmp/build/apidoc.htm\</tspan>
<tspan x="10" y="1386">l</tspan>
<tspan x="10" y="1402"></tspan>
<tspan x="10" y="1418">[node test-case 5 of 6 passed] - testCase_buildApidoc_default</tspan>
<tspan x="10" y="1434"></tspan>
<tspan x="10" y="1450">browserTest - created screen-capture file:///home/travis/build/npmdoc/node-npmdoc-gm/tmp/build/s\</tspan>
<tspan x="10" y="1466">creen-capture.npmTest.browser..png</tspan>
<tspan x="10" y="1482"></tspan>
<tspan x="10" y="1498"></tspan>
<tspan x="10" y="1514">browserTest - exit-code 0 - http://127.0.0.1:48147?modeTest=1</tspan>
<tspan x="10" y="1530"></tspan>
<tspan x="10" y="1546"></tspan>
<tspan x="10" y="1562">browserTest - merged coverage from /home/travis/build/npmdoc/node-npmdoc-gm/tmp/coverage.npmTest\</tspan>
<tspan x="10" y="1578">.browser.%2F.json</tspan>
<tspan x="10" y="1594"></tspan>
<tspan x="10" y="1610"></tspan>
<tspan x="10" y="1626">browserTest - merging test-report from /home/travis/build/npmdoc/node-npmdoc-gm/tmp/test-report.\</tspan>
<tspan x="10" y="1642">npmTest.browser.%2F.json</tspan>
<tspan x="10" y="1658"></tspan>
<tspan x="10" y="1674">[node test-case 6 of 6 passed] - testCase_webpage_default</tspan>
<tspan x="10" y="1690">-----------------------|-----------|-----------|-----------|-----------|</tspan>
<tspan x="10" y="1706">File                   |   % Stmts |% Branches |   % Funcs |   % Lines |</tspan>
<tspan x="10" y="1722">-----------------------|-----------|-----------|-----------|-----------|</tspan>
<tspan x="10" y="1738">   node-npmdoc-gm/     |       100 |       100 |       100 |       100 |</tspan>
<tspan x="10" y="1754">      example.js       |       100 |       100 |       100 |       100 |</tspan>
<tspan x="10" y="1770">      lib.npmdoc_gm.js |       100 |       100 |       100 |       100 |</tspan>
<tspan x="10" y="1786">      test.js          |       100 |       100 |       100 |       100 |</tspan>
<tspan x="10" y="1802">-----------------------|-----------|-----------|-----------|-----------|</tspan>
<tspan x="10" y="1818">All files              |       100 |       100 |       100 |       100 |</tspan>
<tspan x="10" y="1834">-----------------------|-----------|-----------|-----------|-----------|</tspan>
<tspan x="10" y="1850"></tspan>
<tspan x="10" y="1866">created coverage file:///home/travis/build/npmdoc/node-npmdoc-gm/tmp/build/coverage.html/index.h\</tspan>
<tspan x="10" y="1882">tml</tspan>
<tspan x="10" y="1898"></tspan>
<tspan x="10" y="1914">/home/travis/build/npmdoc/node-npmdoc-gm/node_modules/utility2/lib.utility2.sh.html.js</tspan>
<tspan x="10" y="1930"> #1 Line too long.</tspan>
<tspan x="10" y="1946">    process.stdout.write('export npm_package_' + key.replace((/\W/g), '_') + '=' + JSON.stringif\</tspan>
<tspan x="10" y="1962">y(value) + ';'); // Line 1445, Pos 116</tspan>
<tspan x="10" y="1978"></tspan>
<tspan x="10" y="1994">merging file:///home/travis/build/npmdoc/node-npmdoc-gm/tmp/build/test-report.json to test-repor\</tspan>
<tspan x="10" y="2010">t</tspan>
<tspan x="10" y="2026"></tspan>
<tspan x="10" y="2042">-------------------------------------------------------</tspan>
<tspan x="10" y="2058">| test-report - buildNpmdoc - node - linux v7.7.4 - 2017-03-25T12:38:21.303Z</tspan>
<tspan x="10" y="2074">|   15784 ms            0 failed        6 passed      |</tspan>
<tspan x="10" y="2090">-------------------------------------------------------</tspan>
<tspan x="10" y="2106"></tspan>
<tspan x="10" y="2122">created test-report file:///home/travis/build/npmdoc/node-npmdoc-gm/tmp/build/test-report.html</tspan>
<tspan x="10" y="2138"></tspan>
<tspan x="10" y="2154"></tspan>
<tspan x="10" y="2170">npmTest - 0 failed tests</tspan>
<tspan x="10" y="2186"></tspan>
<tspan x="10" y="2202"></tspan>
<tspan x="10" y="2218">[MODE_BUILD=npmTest] - 2017-03-25T12:38:39Z - EXIT_CODE - 0</tspan>
</text>
</svg>
